<svg width="169" height="44" viewBox="0 0 169 44" fill="none" xmlns="http://www.w3.org/2000/svg">
<path d="M33.3991 19.6586C31.6852 11.2226 19.9461 10.1043 16.3591 17.8593C16.2165 18.1701 15.9757 18.3246 15.6365 18.3229C13.4435 18.3106 11.2496 18.2949 9.05478 18.2757C8.28522 18.2705 7.69826 17.9588 7.95391 17.084C10.0122 10.086 15.9783 5.05476 23.28 4.5519C31.5626 3.98357 39.2087 9.32381 41.2252 17.3905C42.6939 23.2781 40.9226 29.4329 36.6078 33.5919C33.8609 36.2371 30.047 38.0836 26.2852 38.3769C25.8539 38.4101 24.9243 38.4075 23.4965 38.369C16.3852 38.1726 9.36 32.5548 7.91739 25.4598C7.9 25.3742 7.90175 25.2859 7.92252 25.2012C7.94328 25.1164 7.98254 25.0373 8.03746 24.9697C8.09238 24.902 8.16158 24.8474 8.24007 24.8099C8.31855 24.7724 8.40437 24.7528 8.4913 24.7526L15.8452 24.75C15.9318 24.7492 16.0169 24.7723 16.0914 24.8166C16.1659 24.8609 16.2269 24.9248 16.2678 25.0014C16.7035 25.8107 17.1496 26.6802 17.7574 27.3429C19.4252 29.1587 21.4226 30.1662 23.7496 30.3652C29.7235 30.876 34.6148 25.6379 33.3991 19.6586Z" fill="#049B4A"/>
<path d="M23.7965 21.416L27.8009 17.3905C27.86 17.3307 27.9304 17.2834 28.0079 17.2514C28.0855 17.2194 28.1687 17.2033 28.2525 17.204C28.3364 17.2047 28.4193 17.2223 28.4963 17.2557C28.5733 17.289 28.6428 17.3376 28.7009 17.3983L30.0365 18.7917C30.1465 18.9063 30.2073 19.0597 30.2059 19.2189C30.2044 19.378 30.1408 19.5303 30.0287 19.6429L24.3078 25.3864C24.2247 25.4699 24.1259 25.536 24.0172 25.5811C23.9084 25.6261 23.7919 25.6491 23.6741 25.6489C23.5564 25.6487 23.4398 25.6251 23.331 25.5796C23.2222 25.5342 23.1233 25.4676 23.04 25.3838L19.5652 21.8664C19.514 21.8149 19.4735 21.7538 19.4459 21.6865C19.4183 21.6192 19.4043 21.5471 19.4045 21.4743C19.4048 21.4016 19.4193 21.3296 19.4473 21.2625C19.4754 21.1954 19.5163 21.1345 19.5678 21.0833L20.9583 19.7057C21.0647 19.6007 21.2074 19.541 21.3566 19.5391C21.5058 19.5371 21.65 19.5931 21.7591 19.6952L23.6009 21.4212C23.6272 21.4463 23.6624 21.4598 23.699 21.4588C23.7356 21.4578 23.7706 21.4424 23.7965 21.416Z" fill="#049B4A"/>
<path d="M59.9013 17.5291C59.8274 16.7843 59.5104 16.2057 58.9503 15.7933C58.3902 15.3809 57.63 15.1747 56.6697 15.1747C56.0173 15.1747 55.4664 15.267 55.017 15.4517C54.5677 15.6302 54.223 15.8795 53.983 16.1996C53.7491 16.5196 53.6321 16.8828 53.6321 17.2891C53.6198 17.6276 53.6906 17.9231 53.8445 18.1754C54.0045 18.4278 54.223 18.6463 54.5 18.831C54.777 19.0095 55.0971 19.1664 55.4602 19.3018C55.8234 19.4311 56.2112 19.5419 56.6236 19.6342L58.3224 20.0405C59.1473 20.2251 59.9044 20.4714 60.5938 20.7791C61.2831 21.0869 61.8802 21.4654 62.3849 21.9148C62.8897 22.3641 63.2805 22.8935 63.5575 23.5028C63.8407 24.1122 63.9853 24.8108 63.9915 25.5987C63.9853 26.7559 63.6899 27.7592 63.1051 28.6087C62.5265 29.4519 61.6894 30.1075 60.5938 30.5753C59.5043 31.0369 58.1901 31.2678 56.6513 31.2678C55.1248 31.2678 53.7952 31.0339 52.6626 30.5661C51.5362 30.0982 50.656 29.4058 50.022 28.4886C49.3942 27.5653 49.0649 26.4235 49.0341 25.0632H52.9027C52.9458 25.6972 53.1274 26.2266 53.4474 26.6513C53.7737 27.0698 54.2076 27.3868 54.7493 27.6023C55.2971 27.8116 55.9157 27.9162 56.6051 27.9162C57.2822 27.9162 57.87 27.8177 58.3686 27.6207C58.8733 27.4238 59.2642 27.1499 59.5412 26.799C59.8182 26.4482 59.9567 26.045 59.9567 25.5895C59.9567 25.1648 59.8305 24.8078 59.5781 24.5185C59.3319 24.2292 58.9688 23.983 58.4886 23.7798C58.0147 23.5767 57.433 23.392 56.7436 23.2259L54.6847 22.7088C53.0904 22.321 51.8317 21.7147 50.9084 20.8899C49.9851 20.0651 49.5265 18.9541 49.5327 17.5568C49.5265 16.4119 49.8312 15.4117 50.4467 14.5561C51.0684 13.7005 51.9209 13.0327 53.0043 12.5526C54.0876 12.0724 55.3187 11.8324 56.6974 11.8324C58.1009 11.8324 59.3258 12.0724 60.3722 12.5526C61.4247 13.0327 62.2434 13.7005 62.8281 14.5561C63.4129 15.4117 63.7145 16.4027 63.733 17.5291H59.9013ZM75.7012 24.9616V16.8182H79.6344V31H75.8581V28.424H75.7104C75.3903 29.255 74.8579 29.9228 74.1131 30.4276C73.3745 30.9323 72.4727 31.1847 71.4078 31.1847C70.4599 31.1847 69.6259 30.9692 68.9057 30.5384C68.1855 30.1075 67.6223 29.495 67.2161 28.701C66.816 27.907 66.6129 26.956 66.6067 25.848V16.8182H70.54V25.1463C70.5461 25.9834 70.7708 26.6451 71.214 27.1314C71.6571 27.6177 72.2511 27.8608 72.9959 27.8608C73.4699 27.8608 73.9131 27.7531 74.3255 27.5376C74.7379 27.3161 75.0703 26.9898 75.3226 26.5589C75.5811 26.1281 75.7073 25.5956 75.7012 24.9616ZM89.1882 31.277C87.7356 31.277 86.486 30.9692 85.4396 30.3537C84.3994 29.732 83.5992 28.8703 83.0391 27.7685C82.4851 26.6667 82.2081 25.3987 82.2081 23.9645C82.2081 22.5118 82.4882 21.2377 83.0483 20.142C83.6146 19.0402 84.4179 18.1816 85.4581 17.5661C86.4983 16.9444 87.7356 16.6335 89.1697 16.6335C90.407 16.6335 91.4903 16.8582 92.4197 17.3075C93.3492 17.7569 94.0848 18.3878 94.6264 19.2003C95.1681 20.0128 95.4666 20.9669 95.522 22.0625H91.8104C91.7057 21.3546 91.4287 20.7853 90.9794 20.3544C90.5362 19.9174 89.9545 19.6989 89.2344 19.6989C88.625 19.6989 88.0926 19.8651 87.6371 20.1974C87.1877 20.5237 86.8369 21.0007 86.5845 21.6286C86.3321 22.2564 86.206 23.0166 86.206 23.9091C86.206 24.8139 86.3291 25.5833 86.5753 26.2173C86.8277 26.8513 87.1816 27.3345 87.6371 27.6669C88.0926 27.9993 88.625 28.1655 89.2344 28.1655C89.6837 28.1655 90.0869 28.0732 90.4439 27.8885C90.8071 27.7038 91.1056 27.4361 91.3395 27.0852C91.5795 26.7282 91.7365 26.3004 91.8104 25.8018H95.522C95.4605 26.8852 95.165 27.8393 94.6357 28.6641C94.1125 29.4827 93.3892 30.1229 92.4659 30.5845C91.5426 31.0462 90.45 31.277 89.1882 31.277ZM104.448 31.277C102.995 31.277 101.746 30.9692 100.699 30.3537C99.6592 29.732 98.859 28.8703 98.2988 27.7685C97.7449 26.6667 97.4679 25.3987 97.4679 23.9645C97.4679 22.5118 97.7479 21.2377 98.3081 20.142C98.8743 19.0402 99.6776 18.1816 100.718 17.5661C101.758 16.9444 102.995 16.6335 104.43 16.6335C105.667 16.6335 106.75 16.8582 107.68 17.3075C108.609 17.7569 109.345 18.3878 109.886 19.2003C110.428 20.0128 110.726 20.9669 110.782 22.0625H107.07C106.965 21.3546 106.689 20.7853 106.239 20.3544C105.796 19.9174 105.214 19.6989 104.494 19.6989C103.885 19.6989 103.352 19.8651 102.897 20.1974C102.448 20.5237 102.097 21.0007 101.844 21.6286C101.592 22.2564 101.466 23.0166 101.466 23.9091C101.466 24.8139 101.589 25.5833 101.835 26.2173C102.087 26.8513 102.441 27.3345 102.897 27.6669C103.352 27.9993 103.885 28.1655 104.494 28.1655C104.943 28.1655 105.347 28.0732 105.704 27.8885C106.067 27.7038 106.365 27.4361 106.599 27.0852C106.839 26.7282 106.996 26.3004 107.07 25.8018H110.782C110.72 26.8852 110.425 27.8393 109.895 28.6641C109.372 29.4827 108.649 30.1229 107.726 30.5845C106.802 31.0462 105.71 31.277 104.448 31.277ZM119.763 31.277C118.304 31.277 117.049 30.9815 115.996 30.3906C114.95 29.7936 114.143 28.9503 113.577 27.8608C113.011 26.7652 112.728 25.4695 112.728 23.9737C112.728 22.5149 113.011 21.2346 113.577 20.1328C114.143 19.031 114.94 18.1723 115.968 17.5568C117.002 16.9413 118.215 16.6335 119.606 16.6335C120.542 16.6335 121.413 16.7843 122.219 17.0859C123.032 17.3814 123.739 17.8277 124.343 18.4247C124.952 19.0218 125.426 19.7727 125.765 20.6776C126.103 21.5762 126.272 22.6288 126.272 23.8352V24.9155H114.297V22.478H122.57C122.57 21.9117 122.447 21.41 122.201 20.973C121.954 20.536 121.613 20.1944 121.176 19.9482C120.745 19.6958 120.243 19.5696 119.671 19.5696C119.074 19.5696 118.544 19.7081 118.083 19.9851C117.627 20.2559 117.27 20.6222 117.012 21.0838C116.753 21.5393 116.621 22.0471 116.615 22.6072V24.9247C116.615 25.6264 116.744 26.2327 117.002 26.7436C117.267 27.2545 117.64 27.6484 118.12 27.9254C118.6 28.2024 119.169 28.3409 119.828 28.3409C120.265 28.3409 120.665 28.2794 121.028 28.1562C121.391 28.0331 121.702 27.8485 121.961 27.6023C122.219 27.3561 122.416 27.0545 122.551 26.6974L126.189 26.9375C126.005 27.8116 125.626 28.5748 125.054 29.2273C124.487 29.8736 123.755 30.3783 122.856 30.7415C121.964 31.0985 120.933 31.277 119.763 31.277ZM140.639 20.8622L137.038 21.0838C136.976 20.776 136.844 20.4991 136.641 20.2528C136.438 20.0005 136.17 19.8004 135.838 19.6527C135.511 19.4988 135.121 19.4219 134.665 19.4219C134.056 19.4219 133.542 19.5511 133.123 19.8097C132.705 20.062 132.495 20.4006 132.495 20.8253C132.495 21.1638 132.631 21.45 132.902 21.6839C133.172 21.9179 133.637 22.1056 134.296 22.2472L136.863 22.7642C138.241 23.0473 139.269 23.5028 139.946 24.1307C140.623 24.7585 140.962 25.5833 140.962 26.6051C140.962 27.5346 140.688 28.3501 140.14 29.0518C139.599 29.7536 138.854 30.3014 137.906 30.6953C136.964 31.0831 135.878 31.277 134.647 31.277C132.769 31.277 131.274 30.8861 130.159 30.1044C129.051 29.3165 128.402 28.2455 128.211 26.8913L132.08 26.6882C132.197 27.2607 132.48 27.6977 132.929 27.9993C133.379 28.2947 133.954 28.4425 134.656 28.4425C135.345 28.4425 135.899 28.3101 136.318 28.0455C136.743 27.7746 136.958 27.4268 136.964 27.0021C136.958 26.6451 136.807 26.3527 136.512 26.125C136.216 25.8911 135.761 25.7126 135.145 25.5895L132.689 25.1001C131.304 24.8232 130.273 24.343 129.596 23.6598C128.925 22.9766 128.59 22.1056 128.59 21.0469C128.59 20.1359 128.836 19.3511 129.328 18.6925C129.827 18.0339 130.526 17.526 131.424 17.169C132.329 16.812 133.388 16.6335 134.6 16.6335C136.392 16.6335 137.801 17.0121 138.829 17.7692C139.863 18.5263 140.467 19.5573 140.639 20.8622ZM155.238 20.8622L151.638 21.0838C151.576 20.776 151.444 20.4991 151.241 20.2528C151.037 20.0005 150.77 19.8004 150.437 19.6527C150.111 19.4988 149.72 19.4219 149.265 19.4219C148.655 19.4219 148.141 19.5511 147.723 19.8097C147.304 20.062 147.095 20.4006 147.095 20.8253C147.095 21.1638 147.23 21.45 147.501 21.6839C147.772 21.9179 148.237 22.1056 148.895 22.2472L151.462 22.7642C152.841 23.0473 153.869 23.5028 154.546 24.1307C155.223 24.7585 155.562 25.5833 155.562 26.6051C155.562 27.5346 155.288 28.3501 154.74 29.0518C154.198 29.7536 153.453 30.3014 152.506 30.6953C151.564 31.0831 150.477 31.277 149.246 31.277C147.369 31.277 145.873 30.8861 144.759 30.1044C143.651 29.3165 143.002 28.2455 142.811 26.8913L146.68 26.6882C146.796 27.2607 147.08 27.6977 147.529 27.9993C147.978 28.2947 148.554 28.4425 149.256 28.4425C149.945 28.4425 150.499 28.3101 150.917 28.0455C151.342 27.7746 151.558 27.4268 151.564 27.0021C151.558 26.6451 151.407 26.3527 151.111 26.125C150.816 25.8911 150.36 25.7126 149.745 25.5895L147.289 25.1001C145.904 24.8232 144.873 24.343 144.196 23.6598C143.525 22.9766 143.189 22.1056 143.189 21.0469C143.189 20.1359 143.436 19.3511 143.928 18.6925C144.427 18.0339 145.125 17.526 146.024 17.169C146.929 16.812 147.988 16.6335 149.2 16.6335C150.991 16.6335 152.401 17.0121 153.429 17.7692C154.463 18.5263 155.066 19.5573 155.238 20.8622Z" fill="#049B4A"/>
</svg>
