<svg xmlns="http://www.w3.org/2000/svg" version="1.1" viewBox="0.00 0.00 184.00 168.00">
<path fill="#049B4A" d="   M 128.03 75.06   C 121.46 42.85 76.46 38.58 62.71 68.19   Q 61.89 69.97 59.94 69.96   Q 47.33 69.89 34.71 69.78   C 31.76 69.76 29.51 68.57 30.49 65.23   C 38.38 38.51 61.25 19.30 89.24 17.38   C 120.99 15.21 150.30 35.60 158.03 66.40   C 163.66 88.88 156.87 112.38 140.33 128.26   C 129.80 138.36 115.18 145.41 100.76 146.53   Q 98.28 146.72 90.07 146.50   C 62.81 145.75 35.88 124.30 30.35 97.21   A 2.25 2.25 0.0 0 1 32.55 94.51   L 60.74 94.50   A 1.82 1.82 0.0 0 1 62.36 95.46   C 64.03 98.55 65.74 101.87 68.07 104.40   Q 77.66 114.80 91.04 115.94   C 113.94 117.89 132.69 97.89 128.03 75.06   Z"/>
<path fill="#049B4A" d="   M 91.22 81.77   L 106.57 66.40   A 2.41 2.41 0.0 0 1 110.02 66.43   L 115.14 71.75   A 2.32 2.32 0.0 0 1 115.11 75.00   L 93.18 96.93   A 3.44 3.43 45.1 0 1 88.32 96.92   L 75.00 83.49   A 2.11 2.11 0.0 0 1 75.01 80.50   L 80.34 75.24   A 2.22 2.22 0.0 0 1 83.41 75.20   L 90.47 81.79   A 0.54 0.53 -46.2 0 0 91.22 81.77   Z"/>
</svg>