<svg width="169" height="44" viewBox="0 0 169 44" fill="none" xmlns="http://www.w3.org/2000/svg">
<path d="M33.3991 19.6586C31.6852 11.2226 19.9461 10.1043 16.3591 17.8593C16.2165 18.1701 15.9757 18.3246 15.6365 18.3229C13.4435 18.3106 11.2496 18.2949 9.05478 18.2757C8.28522 18.2705 7.69826 17.9588 7.95391 17.084C10.0122 10.086 15.9783 5.05476 23.28 4.5519C31.5626 3.98357 39.2087 9.32381 41.2252 17.3905C42.6939 23.2781 40.9226 29.4329 36.6078 33.5919C33.8609 36.2371 30.047 38.0836 26.2852 38.3769C25.8539 38.4101 24.9243 38.4075 23.4965 38.369C16.3852 38.1726 9.36 32.5548 7.91739 25.4598C7.9 25.3742 7.90175 25.2859 7.92252 25.2012C7.94328 25.1164 7.98254 25.0373 8.03746 24.9697C8.09238 24.902 8.16158 24.8474 8.24007 24.8099C8.31855 24.7724 8.40437 24.7528 8.4913 24.7526L15.8452 24.75C15.9318 24.7492 16.0169 24.7723 16.0914 24.8166C16.1659 24.8609 16.2269 24.9248 16.2678 25.0014C16.7035 25.8107 17.1496 26.6802 17.7574 27.3429C19.4252 29.1587 21.4226 30.1662 23.7496 30.3652C29.7235 30.876 34.6148 25.6379 33.3991 19.6586Z" fill="#FF0000"/>
<path d="M23.7965 21.416L27.8009 17.3905C27.86 17.3307 27.9304 17.2834 28.0079 17.2514C28.0855 17.2194 28.1687 17.2033 28.2525 17.204C28.3364 17.2047 28.4193 17.2223 28.4963 17.2557C28.5733 17.289 28.6428 17.3376 28.7009 17.3983L30.0365 18.7917C30.1465 18.9063 30.2073 19.0597 30.2059 19.2189C30.2044 19.378 30.1408 19.5303 30.0287 19.6429L24.3078 25.3864C24.2247 25.4699 24.1259 25.536 24.0172 25.5811C23.9084 25.6261 23.7919 25.6491 23.6741 25.6489C23.5564 25.6487 23.4398 25.6251 23.331 25.5796C23.2222 25.5342 23.1233 25.4676 23.04 25.3838L19.5652 21.8664C19.514 21.8149 19.4735 21.7538 19.4459 21.6865C19.4183 21.6192 19.4043 21.5471 19.4045 21.4743C19.4048 21.4016 19.4193 21.3296 19.4473 21.2625C19.4754 21.1954 19.5163 21.1345 19.5678 21.0833L20.9583 19.7057C21.0647 19.6007 21.2074 19.541 21.3566 19.5391C21.5058 19.5371 21.65 19.5931 21.7591 19.6952L23.6009 21.4212C23.6272 21.4463 23.6624 21.4598 23.699 21.4588C23.7356 21.4578 23.7706 21.4424 23.7965 21.416Z" fill="#FF0000"/>
<path d="M55.661 31V12.0909H68.1809V15.3871H59.6589V19.8928H67.35V23.1889H59.6589V31H55.661ZM74.6625 31.2678C73.7576 31.2678 72.9513 31.1108 72.2434 30.7969C71.5356 30.4768 70.9754 30.0059 70.563 29.3842C70.1568 28.7564 69.9537 27.9747 69.9537 27.0391C69.9537 26.2512 70.0983 25.5895 70.3876 25.054C70.6769 24.5185 71.0708 24.0876 71.5694 23.7614C72.068 23.4351 72.6343 23.1889 73.2683 23.0227C73.9084 22.8565 74.5794 22.7396 75.2811 22.6719C76.1059 22.5857 76.7707 22.5057 77.2754 22.4318C77.7801 22.3518 78.1464 22.2348 78.3741 22.081C78.6019 21.9271 78.7157 21.6993 78.7157 21.3977V21.3423C78.7157 20.7576 78.5311 20.3052 78.1618 19.9851C77.7986 19.665 77.2815 19.505 76.6106 19.505C75.9028 19.505 75.3395 19.6619 74.921 19.9759C74.5024 20.2836 74.2254 20.6714 74.09 21.1392L70.4522 20.8438C70.6369 19.982 71.0001 19.2372 71.5417 18.6094C72.0834 17.9754 72.782 17.4891 73.6376 17.1506C74.4993 16.8059 75.4965 16.6335 76.6291 16.6335C77.417 16.6335 78.171 16.7259 78.8912 16.9105C79.6175 17.0952 80.2607 17.3814 80.8208 17.7692C81.3871 18.157 81.8334 18.6555 82.1596 19.2649C82.4859 19.8681 82.649 20.5914 82.649 21.4347V31H78.9189V29.0334H78.8081C78.5803 29.4766 78.2756 29.8674 77.894 30.206C77.5124 30.5384 77.0538 30.8 76.5183 30.9908C75.9828 31.1754 75.3642 31.2678 74.6625 31.2678ZM75.7889 28.5533C76.3675 28.5533 76.8784 28.4394 77.3216 28.2116C77.7647 27.9777 78.1125 27.6638 78.3649 27.2699C78.6172 26.8759 78.7434 26.4297 78.7434 25.9311V24.4261C78.6203 24.5062 78.4511 24.58 78.2356 24.6477C78.0263 24.7093 77.7894 24.7678 77.5247 24.8232C77.26 24.8724 76.9953 24.9186 76.7306 24.9616C76.466 24.9986 76.2259 25.0324 76.0105 25.0632C75.5488 25.1309 75.1457 25.2386 74.801 25.3864C74.4563 25.5341 74.1885 25.7341 73.9977 25.9865C73.8069 26.2327 73.7115 26.5405 73.7115 26.9098C73.7115 27.4453 73.9054 27.8546 74.2931 28.1378C74.6871 28.4148 75.1857 28.5533 75.7889 28.5533ZM85.7005 31V16.8182H89.6337V31H85.7005ZM87.6763 14.9901C87.0916 14.9901 86.5899 14.7962 86.1713 14.4084C85.7589 14.0144 85.5527 13.5436 85.5527 12.9957C85.5527 12.4541 85.7589 11.9893 86.1713 11.6016C86.5899 11.2076 87.0916 11.0107 87.6763 11.0107C88.2611 11.0107 88.7596 11.2076 89.1721 11.6016C89.5906 11.9893 89.7999 12.4541 89.7999 12.9957C89.7999 13.5436 89.5906 14.0144 89.1721 14.4084C88.7596 14.7962 88.2611 14.9901 87.6763 14.9901ZM96.7177 12.0909V31H92.7844V12.0909H96.7177ZM108.963 24.9616V16.8182H112.896V31H109.12V28.424H108.972C108.652 29.255 108.12 29.9228 107.375 30.4276C106.636 30.9323 105.734 31.1847 104.67 31.1847C103.722 31.1847 102.888 30.9692 102.167 30.5384C101.447 30.1075 100.884 29.495 100.478 28.701C100.078 27.907 99.8746 26.956 99.8684 25.848V16.8182H103.802V25.1463C103.808 25.9834 104.032 26.6451 104.476 27.1314C104.919 27.6177 105.513 27.8608 106.258 27.8608C106.732 27.8608 107.175 27.7531 107.587 27.5376C108 27.3161 108.332 26.9898 108.584 26.5589C108.843 26.1281 108.969 25.5956 108.963 24.9616ZM116.042 31V16.8182H119.855V19.2926H120.003C120.262 18.4124 120.696 17.7476 121.305 17.2983C121.914 16.8428 122.616 16.6151 123.41 16.6151C123.607 16.6151 123.819 16.6274 124.047 16.652C124.275 16.6766 124.475 16.7105 124.647 16.7536V20.2436C124.463 20.1882 124.207 20.139 123.881 20.0959C123.555 20.0528 123.256 20.0312 122.985 20.0312C122.407 20.0312 121.89 20.1574 121.434 20.4098C120.985 20.656 120.628 21.0007 120.363 21.4439C120.105 21.8871 119.975 22.398 119.975 22.9766V31H116.042ZM132.484 31.277C131.025 31.277 129.769 30.9815 128.717 30.3906C127.67 29.7936 126.864 28.9503 126.298 27.8608C125.731 26.7652 125.448 25.4695 125.448 23.9737C125.448 22.5149 125.731 21.2346 126.298 20.1328C126.864 19.031 127.661 18.1723 128.689 17.5568C129.723 16.9413 130.936 16.6335 132.327 16.6335C133.262 16.6335 134.133 16.7843 134.94 17.0859C135.752 17.3814 136.46 17.8277 137.063 18.4247C137.673 19.0218 138.147 19.7727 138.485 20.6776C138.824 21.5762 138.993 22.6288 138.993 23.8352V24.9155H127.018V22.478H135.291C135.291 21.9117 135.168 21.41 134.921 20.973C134.675 20.536 134.334 20.1944 133.896 19.9482C133.466 19.6958 132.964 19.5696 132.392 19.5696C131.794 19.5696 131.265 19.7081 130.803 19.9851C130.348 20.2559 129.991 20.6222 129.732 21.0838C129.474 21.5393 129.342 22.0471 129.335 22.6072V24.9247C129.335 25.6264 129.465 26.2327 129.723 26.7436C129.988 27.2545 130.36 27.6484 130.84 27.9254C131.32 28.2024 131.89 28.3409 132.548 28.3409C132.985 28.3409 133.386 28.2794 133.749 28.1562C134.112 28.0331 134.423 27.8485 134.681 27.6023C134.94 27.3561 135.137 27.0545 135.272 26.6974L138.91 26.9375C138.725 27.8116 138.347 28.5748 137.774 29.2273C137.208 29.8736 136.476 30.3783 135.577 30.7415C134.684 31.0985 133.653 31.277 132.484 31.277Z" fill="#FF0000"/>
</svg>
