<svg xmlns="http://www.w3.org/2000/svg" version="1.1" viewBox="0.00 0.00 180.00 180.00">
<path fill="#ed5c5c" d="   M 97.40 55.88   C 80.61 52.32 63.96 59.98 56.58 75.68   A 2.32 2.31 -77.2 0 1 54.47 77.01   L 24.05 76.97   A 2.04 2.03 -3.1 0 1 22.02 75.16   Q 21.80 73.17 22.60 70.73   Q 32.19 41.26 58.76 28.46   C 78.64 18.88 103.47 19.62 122.79 30.27   C 151.07 45.86 165.22 80.03 154.77 111.15   C 147.49 132.81 130.76 148.98 108.26 155.60   C 71.35 166.47 31.28 144.29 21.96 107.28   C 20.82 102.72 25.28 102.12 28.50 102.05   Q 44.33 101.72 52.25 101.97   C 54.43 102.04 55.91 103.25 57.02 105.25   C 74.80 137.35 119.70 128.83 124.59 92.53   Q 124.98 89.66 124.38 86.48   C 122.03 73.92 116.84 65.96 106.00 59.36   Q 101.83 56.82 97.40 55.88   Z"/>
<path fill="#ed5c5c" d="   M 99.99 90.59   C 102.91 93.22 108.90 95.78 106.89 100.89   C 105.96 103.26 102.66 105.11 100.52 106.71   A 2.56 2.55 -43.7 0 1 97.36 106.64   L 89.83 100.43   A 0.76 0.75 39.4 0 0 88.76 100.53   Q 86.45 103.33 83.82 105.84   C 79.59 109.87 75.05 103.92 72.47 100.96   A 3.07 3.06 47.1 0 1 72.62 96.77   L 78.75 90.68   A 1.08 1.08 0.0 0 0 78.74 89.14   L 72.69 83.31   A 2.97 2.96 -50.0 0 1 72.35 79.43   Q 74.61 76.32 78.07 73.56   C 81.91 70.51 86.61 77.13 89.09 79.60   A 0.57 0.56 44.6 0 0 89.88 79.60   C 92.20 77.30 95.99 72.16 99.47 72.69   C 101.97 73.07 105.89 76.81 106.88 78.72   C 108.91 82.61 102.21 87.02 99.93 89.64   A 0.68 0.67 41.7 0 0 99.99 90.59   Z"/>
</svg>